<svg width="16" height="16" viewBox="0 0 16 16" fill="none" xmlns="http://www.w3.org/2000/svg">
<path d="M13.3999 7.39998H8.60002V2.59996C8.60002 2.26883 8.33118 2 7.99995 2C7.66882 2 7.39998 2.26883 7.39998 2.59996V7.39998H2.59996C2.26883 7.39998 2 7.66882 2 7.99995C2 8.33118 2.26883 8.60002 2.59996 8.60002H7.39998V13.3999C7.39998 13.7312 7.66882 14 7.99995 14C8.33118 14 8.60002 13.7312 8.60002 13.3999V8.60002H13.3999C13.7312 8.60002 14 8.33118 14 7.99995C14 7.66882 13.7312 7.39998 13.3999 7.39998Z" fill="#83889E"/>
</svg>
