<svg width="16" height="16" viewBox="0 0 16 16" fill="none" xmlns="http://www.w3.org/2000/svg">
<path d="M7.99992 1.33331C4.31325 1.33331 1.33325 4.31331 1.33325 7.99998C1.33325 11.6866 4.31325 14.6666 7.99992 14.6666C11.6866 14.6666 14.6666 11.6866 14.6666 7.99998C14.6666 4.31331 11.6866 1.33331 7.99992 1.33331ZM10.8666 10.8666C10.6066 11.1266 10.1866 11.1266 9.92659 10.8666L7.99992 8.93998L6.07325 10.8666C5.81325 11.1266 5.39325 11.1266 5.13325 10.8666C4.87325 10.6066 4.87325 10.1866 5.13325 9.92665L7.05992 7.99998L5.13325 6.07331C4.87325 5.81331 4.87325 5.39331 5.13325 5.13331C5.39325 4.87331 5.81325 4.87331 6.07325 5.13331L7.99992 7.05998L9.92659 5.13331C10.1866 4.87331 10.6066 4.87331 10.8666 5.13331C11.1266 5.39331 11.1266 5.81331 10.8666 6.07331L8.93992 7.99998L10.8666 9.92665C11.1199 10.18 11.1199 10.6066 10.8666 10.8666Z" fill="#83889E"/>
</svg>
