<svg width="16" height="16" viewBox="0 0 16 16" fill="none" xmlns="http://www.w3.org/2000/svg">
<g clip-path="url(#clip0_1_23842)">
<path d="M12.6666 13.3334H3.33325V14C3.33325 14.1768 3.26301 14.3464 3.13799 14.4714C3.01297 14.5964 2.8434 14.6667 2.66659 14.6667H1.99992C1.82311 14.6667 1.65354 14.5964 1.52851 14.4714C1.40349 14.3464 1.33325 14.1768 1.33325 14V7.33335L2.98659 3.47469C3.08947 3.23469 3.26056 3.03018 3.47862 2.88654C3.69669 2.7429 3.95213 2.66646 4.21325 2.66669H11.7866C12.0475 2.66672 12.3026 2.74329 12.5204 2.88691C12.7382 3.03053 12.9091 3.2349 13.0119 3.47469L14.6666 7.33335V14C14.6666 14.1768 14.5963 14.3464 14.4713 14.4714C14.3463 14.5964 14.1767 14.6667 13.9999 14.6667H13.3333C13.1564 14.6667 12.9869 14.5964 12.8618 14.4714C12.7368 14.3464 12.6666 14.1768 12.6666 14V13.3334ZM13.3333 8.66669H2.66659V12H13.3333V8.66669ZM2.78392 7.33335H13.2159L11.7873 4.00002H4.21325L2.78459 7.33335H2.78392ZM4.33325 11.3334C4.06804 11.3334 3.81368 11.228 3.62614 11.0405C3.43861 10.8529 3.33325 10.5986 3.33325 10.3334C3.33325 10.0681 3.43861 9.81378 3.62614 9.62625C3.81368 9.43871 4.06804 9.33335 4.33325 9.33335C4.59847 9.33335 4.85282 9.43871 5.04036 9.62625C5.2279 9.81378 5.33325 10.0681 5.33325 10.3334C5.33325 10.5986 5.2279 10.8529 5.04036 11.0405C4.85282 11.228 4.59847 11.3334 4.33325 11.3334ZM11.6666 11.3334C11.4014 11.3334 11.147 11.228 10.9595 11.0405C10.7719 10.8529 10.6666 10.5986 10.6666 10.3334C10.6666 10.0681 10.7719 9.81378 10.9595 9.62625C11.147 9.43871 11.4014 9.33335 11.6666 9.33335C11.9318 9.33335 12.1862 9.43871 12.3737 9.62625C12.5612 9.81378 12.6666 10.0681 12.6666 10.3334C12.6666 10.5986 12.5612 10.8529 12.3737 11.0405C12.1862 11.228 11.9318 11.3334 11.6666 11.3334Z" fill="#83889E"/>
</g>
<defs>
<clipPath id="clip0_1_23842">
<rect width="16" height="16" fill="white"/>
</clipPath>
</defs>
</svg>
