<svg width="16" height="16" viewBox="0 0 16 16" fill="none" xmlns="http://www.w3.org/2000/svg">
<path d="M13.3261 4.34687H11.8652L11.0587 3.12948C10.7543 2.67296 10.2217 2.39905 9.67391 2.39905H6.32609C5.77826 2.39905 5.24565 2.67296 4.9413 3.12948L4.13478 4.34687H2.67391C1.74565 4.34687 1 5.09253 1 6.02079V11.9251C1 12.8534 1.74565 13.599 2.67391 13.599H13.3261C14.2543 13.599 15 12.8534 15 11.9251V6.02079C15 5.09253 14.2543 4.34687 13.3261 4.34687ZM8 12.2295C5.91522 12.2295 4.22609 10.5404 4.22609 8.45557C4.22609 6.37079 5.91522 4.69687 8 4.69687C10.0848 4.69687 11.7739 6.386 11.7739 8.47079C11.7739 10.5404 10.0848 12.2295 8 12.2295ZM13.113 6.70557C13.0978 6.70557 13.0826 6.70557 13.0522 6.70557H12.4435C12.1696 6.69035 11.9565 6.46209 11.9717 6.18818C11.987 5.92948 12.1848 5.73166 12.4435 5.71644H13.0522C13.3261 5.70122 13.5543 5.91427 13.5696 6.18818C13.5848 6.46209 13.387 6.69035 13.113 6.70557Z" fill="#83889E"/>
<path d="M8.00035 6.14014C6.6786 6.14014 5.60034 7.2184 5.60034 8.54014C5.60034 9.86188 6.6786 10.9227 8.00035 10.9227C9.32209 10.9227 10.4004 9.84448 10.4004 8.52275C10.4004 7.20101 9.32209 6.14014 8.00035 6.14014Z" fill="#83889E"/>
</svg>
