<svg width="16" height="16" viewBox="0 0 16 16" fill="none" xmlns="http://www.w3.org/2000/svg">
<path d="M9.72769 2.41876C9.53998 2.15597 9.23691 2 8.91395 2H7.08605C6.7631 2 6.46002 2.15597 6.27231 2.41876L6 2.8H4.47709C4.2136 2.8 4 3.0136 4 3.27709C4 3.54058 4.2136 3.75418 4.47709 3.75418H11.5229C11.7864 3.75418 12 3.54058 12 3.27709C12 3.0136 11.7864 2.8 11.5229 2.8H10L9.72769 2.41876ZM11.4286 5.16668C11.4286 4.89054 11.2047 4.66668 10.9286 4.66668H8H5.07143C4.79529 4.66668 4.57143 4.89054 4.57143 5.16668V12.6667C4.57143 13.4 5.08571 14 5.71429 14H10.2857C10.9143 14 11.4286 13.4 11.4286 12.6667V5.16668Z" fill="#83889E"/>
</svg>
