<svg width="16" height="16" viewBox="0 0 16 16" fill="none" xmlns="http://www.w3.org/2000/svg">
<path d="M7.89307 5.78274L9.89717 7.78684L9.90672 7.68187C9.90672 6.6289 9.051 5.77319 7.99804 5.77319L7.89307 5.78274Z" fill="#83889E"/>
<path d="M7.9982 4.50077C9.75417 4.50077 11.1793 5.92592 11.1793 7.68189C11.1793 8.09226 11.0966 8.48353 10.9535 8.84299L12.8144 10.7039C13.7751 9.9023 14.5322 8.86527 14.9998 7.68189C13.896 4.88888 11.1825 2.91022 7.99823 2.91022C7.10751 2.91022 6.25499 3.06926 5.46289 3.35556L6.83713 4.72661C7.19656 4.58666 7.58783 4.50077 7.9982 4.50077Z" fill="#83889E"/>
<path d="M2.04178 2.36149C1.81779 2.58548 1.81779 2.94863 2.04178 3.17262L3.0868 4.21765L3.3763 4.50714C2.32653 5.32787 1.49625 6.419 1 7.68189C2.10068 10.4749 4.81734 12.4536 7.99847 12.4536C8.98463 12.4536 9.92623 12.2627 10.7883 11.9159L11.0587 12.1864L12.5095 13.6396C12.7326 13.8631 13.0946 13.8636 13.3183 13.6407C13.5425 13.4174 13.5429 13.0545 13.3192 12.8307L2.85296 2.36155C2.62899 2.13751 2.26579 2.13748 2.04178 2.36149ZM5.15455 6.2822L6.13752 7.26517C6.10889 7.40197 6.0898 7.53874 6.0898 7.68189C6.0898 8.73485 6.94551 9.59056 7.99847 9.59056C8.14162 9.59056 8.27842 9.57147 8.41203 9.54284L9.395 10.5258C8.9719 10.7358 8.50111 10.863 7.99847 10.863C6.2425 10.863 4.81734 9.43787 4.81734 7.68189C4.81734 7.17928 4.9446 6.70846 5.15455 6.2822Z" fill="#83889E"/>
</svg>
