<svg width="16" height="16" viewBox="0 0 16 16" fill="none" xmlns="http://www.w3.org/2000/svg">
<path fill-rule="evenodd" clip-rule="evenodd" d="M2.50024 7.99847C2.50024 7.72233 2.7241 7.49847 3.00024 7.49847H13.0002C13.2764 7.49847 13.5002 7.72233 13.5002 7.99847C13.5002 8.27461 13.2764 8.49847 13.0002 8.49847H3.00024C2.7241 8.49847 2.50024 8.27461 2.50024 7.99847Z" fill="#83889E"/>
<path fill-rule="evenodd" clip-rule="evenodd" d="M2.50024 4.16308C2.50024 3.88694 2.7241 3.66309 3.00024 3.66309H13.0002C13.2764 3.66309 13.5002 3.88694 13.5002 4.16308C13.5002 4.43922 13.2764 4.66308 13.0002 4.66308H3.00024C2.7241 4.66308 2.50024 4.43922 2.50024 4.16308Z" fill="#83889E"/>
<path fill-rule="evenodd" clip-rule="evenodd" d="M2.50024 11.8328C2.50024 11.5567 2.7241 11.3328 3.00024 11.3328H13.0002C13.2764 11.3328 13.5002 11.5567 13.5002 11.8328C13.5002 12.109 13.2764 12.3328 13.0002 12.3328H3.00024C2.7241 12.3328 2.50024 12.109 2.50024 11.8328Z" fill="#83889E"/>
</svg>
