<svg width="16" height="16" viewBox="0 0 16 16" fill="none" xmlns="http://www.w3.org/2000/svg">
<path d="M12.0001 5.33335H11.3334V4.00002C11.3334 2.16002 9.84008 0.666687 8.00008 0.666687C6.16008 0.666687 4.66675 2.16002 4.66675 4.00002V5.33335H4.00008C3.26675 5.33335 2.66675 5.93335 2.66675 6.66669V13.3334C2.66675 14.0667 3.26675 14.6667 4.00008 14.6667H12.0001C12.7334 14.6667 13.3334 14.0667 13.3334 13.3334V6.66669C13.3334 5.93335 12.7334 5.33335 12.0001 5.33335ZM6.00008 4.00002C6.00008 2.89335 6.89341 2.00002 8.00008 2.00002C9.10675 2.00002 10.0001 2.89335 10.0001 4.00002V5.33335H6.00008V4.00002ZM12.0001 13.3334H4.00008V6.66669H12.0001V13.3334ZM8.00008 11.3334C8.73342 11.3334 9.33342 10.7334 9.33342 10C9.33342 9.26669 8.73342 8.66669 8.00008 8.66669C7.26675 8.66669 6.66675 9.26669 6.66675 10C6.66675 10.7334 7.26675 11.3334 8.00008 11.3334Z" fill="#83889E"/>
</svg>
