<svg width="16" height="16" viewBox="0 0 16 16" fill="none" xmlns="http://www.w3.org/2000/svg">
<path d="M11.8037 5.13712C11.5439 4.8773 11.1226 4.8773 10.8628 5.13712C10.6033 5.39659 10.6029 5.81715 10.8619 6.07712L12.1133 7.33333H5.99992C5.63173 7.33333 5.33325 7.63181 5.33325 8C5.33325 8.36819 5.63173 8.66667 5.99992 8.66667H12.1133L10.8633 9.91666C10.6034 10.1765 10.6027 10.5976 10.8616 10.8583C11.1218 11.1204 11.5454 11.1211 11.8066 10.86L14.0233 8.64332C14.3786 8.28803 14.3786 7.71197 14.0233 7.35668L11.8037 5.13712ZM2.66659 3.33333H7.33325C7.70144 3.33333 7.99992 3.03486 7.99992 2.66667C7.99992 2.29848 7.70144 2 7.33325 2H2.66659C1.93325 2 1.33325 2.6 1.33325 3.33333V12.6667C1.33325 13.4 1.93325 14 2.66659 14H7.33325C7.70144 14 7.99992 13.7015 7.99992 13.3333C7.99992 12.9651 7.70144 12.6667 7.33325 12.6667H2.66659V3.33333Z" fill="#83889E"/>
</svg>
