<svg width="16" height="16" viewBox="0 0 16 16" fill="none" xmlns="http://www.w3.org/2000/svg">
<path d="M7.86659 7.26667C6.35325 6.87333 5.86659 6.46667 5.86659 5.83333C5.86659 5.10667 6.53992 4.6 7.66658 4.6C8.61325 4.6 9.08659 4.96 9.25992 5.53333C9.33992 5.8 9.55992 6 9.83992 6H10.0399C10.4799 6 10.7933 5.56667 10.6399 5.15333C10.3599 4.36667 9.70658 3.71333 8.66658 3.46V3C8.66658 2.44667 8.21992 2 7.66658 2C7.11325 2 6.66659 2.44667 6.66659 3V3.44C5.37325 3.72 4.33325 4.56 4.33325 5.84667C4.33325 7.38667 5.60659 8.15333 7.46658 8.6C9.13325 9 9.46658 9.58667 9.46658 10.2067C9.46658 10.6667 9.13992 11.4 7.66658 11.4C6.56659 11.4 5.99992 11.0067 5.77992 10.4467C5.67992 10.1867 5.45325 10 5.17992 10H4.99325C4.54659 10 4.23325 10.4533 4.39992 10.8667C4.77992 11.7933 5.66659 12.34 6.66659 12.5533V13C6.66659 13.5533 7.11325 14 7.66658 14C8.21992 14 8.66658 13.5533 8.66658 13V12.5667C9.96659 12.32 10.9999 11.5667 10.9999 10.2C10.9999 8.30667 9.37992 7.66 7.86659 7.26667Z" fill="#83889E"/>
</svg>
