<svg width="16" height="16" viewBox="0 0 16 16" fill="none" xmlns="http://www.w3.org/2000/svg">
<path d="M4.39701 11.5539C3.52681 11.5539 2.75275 10.9967 2.47167 10.1672L2.45266 10.1047C2.38637 9.88505 2.3586 9.70032 2.3586 9.51549V5.80933L1.03991 10.2112C0.870305 10.8587 1.25679 11.5299 1.90524 11.7088L10.3106 13.9598C10.4155 13.987 10.5204 14 10.6237 14C11.1651 14 11.6597 13.6407 11.7984 13.1112L12.2881 11.5539H4.39701Z" fill="#83889E"/>
<path d="M5.89187 5.84637C6.49145 5.84637 6.97895 5.35876 6.97895 4.75918C6.97895 4.1596 6.49145 3.672 5.89187 3.672C5.29229 3.672 4.80469 4.1596 4.80469 4.75918C4.80469 5.35876 5.29229 5.84637 5.89187 5.84637Z" fill="#83889E"/>
<path d="M12.6864 2.04126H4.53273C3.78376 2.04126 3.17383 2.65119 3.17383 3.40026V9.37953C3.17383 10.1286 3.78376 10.7385 4.53273 10.7385H12.6864C13.4354 10.7385 14.0454 10.1286 14.0454 9.37953V3.40026C14.0454 2.65119 13.4354 2.04126 12.6864 2.04126ZM4.53273 3.12844H12.6864C12.8365 3.12844 12.9582 3.25017 12.9582 3.40026V7.25911L11.2411 5.25543C11.0589 5.04184 10.7953 4.92768 10.5121 4.92121C10.2305 4.9228 9.96637 5.04781 9.78592 5.26419L7.76702 7.68739L7.10931 7.03128C6.73756 6.65953 6.13251 6.65953 5.76125 7.03128L4.26101 8.53102V3.40026C4.26101 3.25017 4.38274 3.12844 4.53273 3.12844Z" fill="#83889E"/>
</svg>
