<svg width="16" height="16" viewBox="0 0 16 16" fill="none" xmlns="http://www.w3.org/2000/svg">
<path d="M3.19999 6.79975C3.19999 4.81445 4.81457 3.19994 6.79995 3.19994C8.78533 3.19994 10.3999 4.81445 10.3999 6.79975C10.3999 8.78505 8.78533 10.3996 6.79995 10.3996C4.81457 10.3996 3.19999 8.78505 3.19999 6.79975ZM13.8241 12.9752L10.5871 9.7378C11.2434 8.89906 11.6 7.86473 11.5999 6.79975C11.5999 4.15329 9.44653 2 6.79995 2C4.15338 2 2 4.15329 2 6.79975C2 9.44621 4.15338 11.5995 6.79995 11.5995C7.86491 11.5992 8.89917 11.2427 9.73812 10.5868L12.9757 13.8236C13.0313 13.8795 13.0974 13.9239 13.1702 13.9541C13.243 13.9844 13.321 14 13.3999 14C13.4787 14 13.5568 13.9844 13.6296 13.9541C13.7024 13.9239 13.7685 13.8795 13.8241 13.8236C13.8798 13.7679 13.9241 13.7018 13.9543 13.629C13.9845 13.5562 14 13.4782 14 13.3994C14 13.3206 13.9845 13.2426 13.9543 13.1698C13.9241 13.097 13.8798 13.0309 13.8241 12.9752Z" fill="#83889E"/>
</svg>
