<svg width="16" height="16" viewBox="0 0 16 16" fill="none" xmlns="http://www.w3.org/2000/svg">
<path d="M7.99951 6C6.89617 6 5.99951 6.89666 5.99951 8.00001C5.99951 9.10335 6.89617 10 7.99951 10C9.10286 10 9.99951 9.10335 9.99951 8.00001C9.99951 6.89666 9.10282 6 7.99951 6Z" fill="#83889E"/>
<path d="M7.99938 3C4.66603 3 1.81936 5.07332 0.666016 8.00002C1.81936 10.9267 4.66603 13 7.99938 13C11.3361 13 14.1794 10.9267 15.3328 8.00002C14.1794 5.07332 11.3361 3 7.99938 3ZM7.99938 11.3333C6.15938 11.3333 4.66603 9.84 4.66603 7.99999C4.66603 6.15998 6.15938 4.66666 7.99938 4.66666C9.83939 4.66666 11.3327 6.16001 11.3327 8.00002C11.3327 9.84003 9.83939 11.3333 7.99938 11.3333Z" fill="#83889E"/>
</svg>
