<svg width="16" height="16" viewBox="0 0 16 16" fill="none" xmlns="http://www.w3.org/2000/svg">
<path d="M7.99325 1.33331C4.31325 1.33331 1.33325 4.31998 1.33325 7.99998C1.33325 11.68 4.31325 14.6666 7.99325 14.6666C11.6799 14.6666 14.6666 11.68 14.6666 7.99998C14.6666 4.31998 11.6799 1.33331 7.99325 1.33331ZM7.99992 13.3333C5.05325 13.3333 2.66659 10.9466 2.66659 7.99998C2.66659 5.05331 5.05325 2.66665 7.99992 2.66665C10.9466 2.66665 13.3333 5.05331 13.3333 7.99998C13.3333 10.9466 10.9466 13.3333 7.99992 13.3333ZM7.85325 4.66665H7.81325C7.54659 4.66665 7.33325 4.87998 7.33325 5.14665V8.29331C7.33325 8.52665 7.45325 8.74665 7.65992 8.86665L10.4266 10.5266C10.6533 10.66 10.9466 10.5933 11.0799 10.3666C11.2199 10.14 11.1466 9.83998 10.9133 9.70665L8.33325 8.17331V5.14665C8.33325 4.87998 8.11992 4.66665 7.85325 4.66665Z" fill="#83889E"/>
</svg>
