<svg width="16" height="16" viewBox="0 0 16 16" fill="none" xmlns="http://www.w3.org/2000/svg">
<path d="M2.98 13.3383H13.02C14.0467 13.3383 14.6867 12.225 14.1733 11.3383L9.15333 2.665C8.64 1.77833 7.36 1.77833 6.84667 2.665L1.82667 11.3383C1.31333 12.225 1.95333 13.3383 2.98 13.3383ZM8 9.005C7.63333 9.005 7.33333 8.705 7.33333 8.33833V6.67167C7.33333 6.305 7.63333 6.005 8 6.005C8.36667 6.005 8.66667 6.305 8.66667 6.67167V8.33833C8.66667 8.705 8.36667 9.005 8 9.005ZM8.66667 10.6717C8.66667 11.0399 8.36819 11.3383 8 11.3383C7.63181 11.3383 7.33333 11.0399 7.33333 10.6717C7.33333 10.3035 7.63181 10.005 8 10.005C8.36819 10.005 8.66667 10.3035 8.66667 10.6717Z" fill="#83889E"/>
</svg>
